<svg width="76" height="76" fill="none" xmlns="http://www.w3.org/2000/svg"><rect opacity=".137" width="76" height="76" rx="11" fill="#717CFF"/><path d="M33.07 15.765V35h-3.797V20.142l-4.562 1.45V18.6l7.95-2.835h.408Zm19.287.04v2.043L44.935 35h-4.008l7.422-16.229h-9.558v-2.966h13.566ZM34.812 52.347v.518c0 .979-.138 1.858-.414 2.637a5.734 5.734 0 0 1-1.15 1.986 5.104 5.104 0 0 1-1.767 1.257c-.68.287-1.43.43-2.25.43-.827 0-1.583-.143-2.268-.43a5.192 5.192 0 0 1-1.776-1.257 5.846 5.846 0 0 1-1.16-1.986c-.27-.78-.404-1.658-.404-2.637v-.518c0-.979.135-1.858.404-2.637.276-.78.66-1.441 1.152-1.986a4.955 4.955 0 0 1 1.766-1.257c.686-.293 1.442-.44 2.268-.44.82 0 1.57.147 2.25.44a4.937 4.937 0 0 1 1.775 1.257c.498.545.885 1.207 1.16 1.986.276.78.413 1.658.413 2.637Zm-3.13.518v-.536a7.47 7.47 0 0 0-.166-1.67c-.106-.486-.264-.893-.475-1.221a2.089 2.089 0 0 0-.782-.739 2.111 2.111 0 0 0-1.046-.255c-.41 0-.768.085-1.072.255-.305.164-.56.41-.765.739-.205.328-.36.735-.466 1.221a8.26 8.26 0 0 0-.15 1.67v.536c0 .627.05 1.184.15 1.67.106.48.26.888.466 1.222.21.334.469.586.773.756.311.17.671.255 1.081.255.393 0 .742-.085 1.046-.255.305-.17.56-.422.765-.756.211-.334.37-.741.475-1.222a7.52 7.52 0 0 0 .167-1.67Zm8.605 4.026c.276 0 .51-.05.703-.15.2-.105.349-.252.448-.44.106-.193.156-.424.15-.694h2.786c.006.715-.17 1.342-.527 1.881-.352.534-.832.95-1.442 1.248-.603.293-1.286.44-2.048.44-.744 0-1.394-.12-1.95-.36a3.906 3.906 0 0 1-1.398-1.02 4.489 4.489 0 0 1-.835-1.538 6.413 6.413 0 0 1-.273-1.907v-.203c0-.685.091-1.32.273-1.907a4.384 4.384 0 0 1 .835-1.538 3.78 3.78 0 0 1 1.389-1.02c.556-.245 1.204-.368 1.942-.368.79 0 1.488.149 2.092.448a3.381 3.381 0 0 1 1.432 1.3c.346.569.516 1.257.51 2.066h-2.786a1.917 1.917 0 0 0-.132-.773 1.186 1.186 0 0 0-.44-.546c-.193-.14-.442-.21-.746-.21-.305 0-.551.067-.739.202a1.273 1.273 0 0 0-.43.562 3.147 3.147 0 0 0-.194.809c-.03.304-.044.63-.044.975v.203c0 .351.015.682.044.993.035.304.103.574.202.808.1.229.243.41.431.545.188.13.437.194.747.194Zm10.362-7.4v2.056h-5.73V49.49h5.73Zm-4.526-2.365h2.962v8.772c0 .251.03.448.088.588a.538.538 0 0 0 .299.29c.146.053.34.08.58.08.17 0 .31-.004.422-.01.111-.011.216-.026.316-.043v2.118a4.866 4.866 0 0 1-.791.184 5.22 5.22 0 0 1-.879.07c-.633 0-1.175-.099-1.626-.298a2.12 2.12 0 0 1-1.02-.94c-.234-.428-.351-.985-.351-1.67v-9.141Z" fill="#717CFF"/></svg>